<?xml version="1.0" standalone="no"?>
<!DOCTYPE svg PUBLIC "-//W3C//DTD SVG 20010904//EN"
 "http://www.w3.org/TR/2001/REC-SVG-20010904/DTD/svg10.dtd">
<svg version="1.0" xmlns="http://www.w3.org/2000/svg"
 width="320.000000pt" height="320.000000pt" viewBox="0 0 320.000000 320.000000"
 preserveAspectRatio="xMidYMid meet">
<metadata>
Created by potrace 1.11, written by Peter Selinger 2001-2013
</metadata>
<g transform="translate(0.000000,320.000000) scale(0.100000,-0.100000)"
fill="#000000" stroke="none">
<path d="M2408 3193 c7 -3 16 -2 19 1 4 3 -2 6 -13 5 -11 0 -14 -3 -6 -6z"/>
<path d="M2348 3183 c7 -3 16 -2 19 1 4 3 -2 6 -13 5 -11 0 -14 -3 -6 -6z"/>
<path d="M2288 3173 c7 -3 16 -2 19 1 4 3 -2 6 -13 5 -11 0 -14 -3 -6 -6z"/>
<path d="M1958 3113 c7 -3 16 -2 19 1 4 3 -2 6 -13 5 -11 0 -14 -3 -6 -6z"/>
<path d="M1908 3103 c7 -3 16 -2 19 1 4 3 -2 6 -13 5 -11 0 -14 -3 -6 -6z"/>
<path d="M1858 3093 c6 -2 18 -2 25 0 6 3 1 5 -13 5 -14 0 -19 -2 -12 -5z"/>
<path d="M1688 3063 c7 -3 16 -2 19 1 4 3 -2 6 -13 5 -11 0 -14 -3 -6 -6z"/>
<path d="M1308 2993 c7 -3 16 -2 19 1 4 3 -2 6 -13 5 -11 0 -14 -3 -6 -6z"/>
<path d="M878 2913 c7 -3 16 -2 19 1 4 3 -2 6 -13 5 -11 0 -14 -3 -6 -6z"/>
<path d="M808 2903 c6 -2 18 -2 25 0 6 3 1 5 -13 5 -14 0 -19 -2 -12 -5z"/>
<path d="M758 2893 c7 -3 16 -2 19 1 4 3 -2 6 -13 5 -11 0 -14 -3 -6 -6z"/>
<path d="M1410 2704 c-187 -40 -239 -59 -315 -118 -147 -113 -233 -214 -256
-299 -6 -23 -15 -47 -20 -54 -11 -12 -30 -173 -27 -220 1 -16 5 -33 10 -39 5
-7 8 -16 7 -20 -1 -5 -1 -57 0 -117 1 -94 3 -109 21 -124 11 -10 20 -25 20
-35 0 -9 9 -26 20 -36 14 -13 22 -36 25 -78 9 -94 17 -134 26 -140 5 -3 9 6 9
20 0 14 4 27 8 30 13 8 2 210 -13 249 -4 9 -3 17 1 17 5 0 9 13 9 30 0 25 -3
29 -20 24 -16 -4 -17 -3 -5 5 11 8 12 13 3 22 -9 9 -9 18 -2 31 7 14 7 24 -2
34 -10 13 -10 17 2 25 12 7 12 10 0 18 -18 12 -6 118 21 180 10 25 17 53 15
63 -3 10 -2 16 1 14 4 -2 15 12 25 32 18 35 18 35 0 22 -17 -14 -17 -14 -2 5
9 11 20 30 24 43 3 12 10 20 14 17 5 -2 17 11 27 30 10 19 22 35 27 35 4 0 12
10 17 23 5 12 9 16 9 9 1 -9 7 -8 26 4 14 9 22 20 19 25 -3 5 -1 9 5 9 5 0 13
-4 16 -10 3 -5 1 -10 -5 -10 -6 0 -8 -5 -5 -10 4 -7 14 -2 26 11 10 12 19 18
19 12 0 -11 29 -11 48 0 8 6 10 3 6 -8 -7 -16 18 -17 44 -2 6 5 12 4 12 -2 0
-7 8 -7 25 1 28 12 48 2 25 -12 -8 -6 -10 -10 -5 -10 6 0 20 7 31 15 12 8 32
16 45 19 13 3 43 11 67 17 30 8 50 9 65 2 13 -6 31 -7 44 -2 35 13 207 -14
229 -36 23 -22 27 -61 9 -79 -10 -10 -15 -25 -12 -37 4 -16 3 -18 -9 -8 -17
14 -17 9 -4 -26 6 -16 14 -23 22 -19 6 4 8 3 4 -4 -3 -6 -2 -13 4 -17 5 -3 10
-11 10 -16 0 -6 -4 -7 -10 -4 -5 3 -10 1 -10 -6 0 -6 8 -9 19 -6 13 3 23 -3
32 -20 7 -13 26 -32 41 -41 34 -20 40 -63 8 -55 -11 3 -20 0 -20 -6 0 -6 -9
-11 -20 -11 -11 0 -20 -5 -20 -11 0 -6 -7 -9 -15 -5 -8 3 -15 1 -15 -4 0 -6
-6 -10 -14 -10 -8 0 -21 -6 -29 -14 -8 -8 -29 -21 -48 -29 -19 -8 -51 -32 -72
-53 -34 -34 -38 -43 -33 -74 3 -19 10 -66 15 -105 5 -38 14 -86 20 -105 17
-54 13 -86 -16 -143 -15 -29 -26 -55 -25 -59 1 -5 -5 -9 -13 -9 -28 -3 -33 -4
-41 -12 -4 -4 -2 -7 4 -7 8 0 9 -7 2 -25 -8 -21 -7 -25 8 -25 10 0 28 9 40 20
12 11 29 20 38 20 21 0 84 -30 84 -40 0 -4 -21 -18 -47 -31 -27 -13 -50 -27
-53 -30 -3 -4 -14 -9 -25 -12 -11 -2 -2 -5 21 -6 32 -1 43 -6 52 -24 6 -12 11
-16 11 -9 1 6 8 12 17 12 12 0 15 -7 12 -30 -4 -24 -1 -29 11 -25 9 2 51 14
93 24 90 23 114 34 128 60 11 21 58 37 72 23 5 -5 -1 -38 -14 -78 -12 -38 -21
-72 -20 -76 1 -5 -3 -8 -9 -8 -6 0 -9 -6 -6 -14 9 -22 -31 -11 -54 15 -10 12
-19 26 -19 31 0 5 -4 6 -10 3 -6 -3 -10 5 -10 19 0 22 -3 23 -27 15 -16 -4
-41 -11 -56 -14 -15 -3 -30 -13 -33 -23 -16 -46 -51 -105 -66 -109 -10 -3 -20
-14 -23 -24 -4 -11 -11 -16 -18 -12 -7 4 -5 -2 3 -13 22 -29 24 -30 17 -11 -7
18 8 24 18 7 4 -6 10 -8 15 -5 12 7 62 -16 82 -39 17 -18 15 -42 -2 -31 -4 3
-6 -3 -3 -13 3 -12 -4 -22 -20 -31 -20 -11 -24 -19 -20 -43 3 -20 1 -28 -6
-23 -6 3 -11 1 -11 -5 0 -7 -7 -9 -16 -6 -15 6 -15 4 -3 -10 13 -16 11 -17
-15 -10 -23 6 -27 4 -23 -8 8 -20 -4 -27 -61 -32 -26 -2 -52 -10 -57 -17 -6
-8 -25 -13 -43 -12 -36 2 -63 -19 -37 -29 9 -3 13 -2 10 4 -3 6 1 7 9 4 9 -3
16 -10 16 -16 0 -5 -4 -6 -10 -3 -5 3 -10 1 -10 -5 0 -6 -4 -8 -10 -5 -17 11
-11 -7 8 -22 16 -13 15 -13 -7 -7 -19 5 -23 3 -18 -10 4 -9 1 -16 -6 -16 -8 0
-6 -4 3 -10 8 -5 23 -7 33 -4 12 4 20 -2 25 -17 5 -13 11 -18 15 -12 4 6 16 9
28 6 16 -5 18 -8 7 -15 -14 -10 -4 -8 35 7 12 5 17 2 17 -9 0 -9 8 -16 18 -16
10 0 25 -9 34 -20 16 -17 16 -23 3 -54 -8 -19 -23 -40 -32 -45 -10 -6 -13 -11
-6 -11 8 0 9 -10 1 -37 -8 -30 -7 -39 6 -48 9 -7 13 -15 9 -18 -3 -4 2 -7 13
-7 16 0 17 -2 4 -11 -12 -8 -8 -9 15 -6 17 3 41 9 54 13 17 5 22 4 17 -4 -9
-15 -5 -15 29 -2 24 9 26 8 21 -7 -4 -9 -1 -20 5 -24 7 -4 8 -12 3 -20 -5 -8
-7 -24 -5 -36 3 -29 -22 -30 -64 -5 -17 11 -55 27 -85 37 -58 19 -247 102
-315 138 -196 103 -404 310 -393 389 3 18 -5 23 -61 34 -81 17 -97 9 -106 -53
-11 -75 -39 -129 -84 -160 -22 -15 -40 -32 -41 -38 0 -5 -15 -19 -33 -29 -55
-32 -328 -167 -410 -202 -89 -38 -191 -96 -224 -127 -21 -19 -23 -30 -23 -119
l0 -98 1406 0 c832 0 1403 4 1400 9 -17 27 -136 90 -279 147 -103 41 -191 84
-242 118 -44 29 -92 61 -107 70 -16 9 -28 22 -28 28 0 26 -81 177 -118 219
l-40 45 14 65 c7 35 21 98 30 139 9 41 40 135 70 209 30 74 61 161 70 194 8
33 24 67 35 76 16 13 20 32 24 103 3 48 9 107 15 130 15 66 12 213 -5 253 -13
32 -46 196 -75 370 -20 122 -123 292 -228 375 -64 51 -196 121 -246 132 -22 4
-72 13 -111 18 -38 5 -79 11 -90 13 -11 2 -49 -2 -85 -9z m480 -481 c0 -7 -4
-13 -10 -13 -5 0 -10 7 -10 16 0 8 -4 12 -10 9 -11 -7 -14 18 -3 28 7 8 32
-23 33 -40z m10 -33 c0 -5 -4 -10 -10 -10 -5 0 -10 5 -10 10 0 6 5 10 10 10 6
0 10 -4 10 -10z m-1057 -165 c-7 -21 -12 -19 -10 4 0 11 5 18 9 15 4 -3 5 -11
1 -19z m50 -25 c-3 -12 -8 -19 -11 -16 -5 6 5 36 12 36 2 0 2 -9 -1 -20z m-26
-76 c2 -10 0 -13 -3 -6 -5 10 -9 10 -22 0 -15 -11 -15 -11 -5 3 7 9 9 19 5 24
-4 4 0 6 8 3 8 -3 16 -13 17 -24z m1063 -24 c8 -5 13 -10 10 -11 -3 0 -16 -2
-30 -5 -14 -2 -37 -6 -52 -9 -34 -6 -37 8 -5 23 28 14 58 14 77 2z m-1074 -17
c-10 -11 -37 -12 -30 -2 3 5 12 9 21 9 9 0 13 -3 9 -7z m1014 -33 c0 -5 -4
-10 -10 -10 -5 0 -10 5 -10 10 0 6 5 10 10 10 6 0 10 -4 10 -10z m-4 -36 c14
-4 41 -4 60 -1 41 7 37 -8 -4 -16 -28 -6 -42 -37 -16 -37 7 0 16 -5 20 -12 5
-8 1 -9 -12 -4 -14 5 -16 4 -8 -4 7 -7 50 -12 100 -13 l89 -2 2 -32 c1 -18 -3
-31 -9 -30 -14 3 -18 -28 -8 -63 8 -27 5 -40 -18 -110 -3 -8 -4 -18 -4 -22 10
-46 -152 100 -164 147 -4 15 -1 38 5 52 16 34 6 60 -29 78 -38 19 -50 43 -42
80 4 20 7 24 10 13 2 -10 15 -21 28 -24z m-291 -1113 c-3 -6 -11 -11 -16 -11
-5 0 -4 6 3 14 14 16 24 13 13 -3z m80 -662 c0 -15 -7 -25 -19 -27 -14 -3 -17
0 -12 13 4 11 0 25 -10 36 -15 17 -14 17 12 10 22 -6 29 -13 29 -32z"/>
<path d="M2638 2363 c7 -3 16 -2 19 1 4 3 -2 6 -13 5 -11 0 -14 -3 -6 -6z"/>
<path d="M2398 2323 c7 -3 16 -2 19 1 4 3 -2 6 -13 5 -11 0 -14 -3 -6 -6z"/>
<path d="M2248 2303 c6 -2 18 -2 25 0 6 3 1 5 -13 5 -14 0 -19 -2 -12 -5z"/>
<path d="M1265 1945 c-6 -18 -8 -18 -12 -2 -2 9 -8 17 -13 17 -4 0 -6 -9 -3
-20 4 -15 0 -20 -16 -20 -11 0 -21 -3 -21 -7 0 -5 50 -9 110 -11 61 -2 110 -1
110 1 0 15 -41 46 -70 52 -61 14 -78 12 -85 -10z"/>
<path d="M1314 1861 c29 -5 52 -14 58 -24 5 -9 19 -17 31 -17 20 1 21 2 5 14
-24 18 -22 25 5 20 20 -4 21 -4 2 5 -11 5 -49 9 -85 9 -65 -1 -65 -1 -16 -7z"/>
<path d="M915 1830 c3 -5 11 -10 16 -10 6 0 7 5 4 10 -3 6 -11 10 -16 10 -6 0
-7 -4 -4 -10z"/>
<path d="M1174 1808 l-29 -33 33 29 c17 17 32 31 32 33 0 8 -8 1 -36 -29z"/>
<path d="M1255 1815 c-41 -19 -91 -63 -82 -71 4 -4 18 3 31 15 15 14 26 19 31
12 7 -12 47 -14 83 -5 14 4 22 14 22 27 0 19 1 19 18 4 24 -21 90 -24 73 -3
-11 13 -46 22 -116 31 -16 2 -43 -2 -60 -10z"/>
<path d="M1373 1753 c4 -3 -3 -17 -15 -30 -27 -29 -10 -30 26 -2 21 17 25 24
14 30 -16 10 -34 12 -25 2z"/>
<path d="M805 1660 c-3 -5 -3 -14 0 -20 3 -5 1 -10 -6 -10 -10 0 -10 -3 -1
-12 9 -9 9 -15 0 -25 -8 -10 -8 -17 0 -25 9 -9 12 -7 13 8 1 24 5 44 14 65 7
19 -10 35 -20 19z"/>
<path d="M2910 1540 c-118 -15 -269 -34 -335 -40 -66 -7 -124 -17 -130 -22 -6
-6 7 -7 35 -4 25 4 151 17 280 31 129 14 262 30 295 35 33 5 79 10 103 10 23
0 42 5 42 10 0 14 -49 11 -290 -20z"/>
<path d="M1502 1478 c-15 -15 -16 -38 -2 -38 6 0 22 7 36 17 19 12 22 18 12
24 -18 12 -32 11 -46 -3z"/>
<path d="M1307 1403 c-60 -64 -68 -77 -62 -101 6 -23 54 -132 58 -132 1 0 2
26 1 58 0 39 -4 56 -12 55 -18 -4 -15 1 21 39 27 29 77 144 65 152 -2 1 -34
-31 -71 -71z"/>
<path d="M1440 1271 c-47 -10 -91 -16 -97 -14 -25 10 -12 -8 20 -27 34 -21 62
-27 52 -10 -9 15 41 42 103 55 31 7 46 13 32 13 -14 0 -63 -8 -110 -17z"/>
<path d="M68 1251 c-31 -3 -60 -10 -64 -14 -9 -9 110 1 166 13 l35 8 -40 0
c-22 -1 -66 -4 -97 -7z"/>
<path d="M2803 687 c-159 -12 -283 -25 -283 -30 0 -6 24 -7 58 -4 31 3 167 13
302 22 252 17 388 33 265 33 -33 -1 -187 -10 -342 -21z"/>
<path d="M1407 685 c3 -8 9 -12 14 -9 12 7 11 11 -5 17 -10 4 -13 1 -9 -8z"/>
<path d="M1441 676 c-10 -11 -7 -14 12 -12 15 0 23 6 20 14 -7 16 -18 15 -32
-2z"/>
<path d="M225 510 l-70 -6 60 -1 c33 -1 80 2 105 6 40 8 41 8 10 8 -19 0 -66
-3 -105 -7z"/>
</g>
</svg>
