<?xml version="1.0" standalone="no"?>
<!DOCTYPE svg PUBLIC "-//W3C//DTD SVG 20010904//EN"
 "http://www.w3.org/TR/2001/REC-SVG-20010904/DTD/svg10.dtd">
<svg version="1.0" xmlns="http://www.w3.org/2000/svg"
 width="400.000000pt" height="400.000000pt" viewBox="0 0 400.000000 400.000000"
 preserveAspectRatio="xMidYMid meet">

<g transform="translate(0.000000,400.000000) scale(0.100000,-0.100000)"
fill="#000000" stroke="none">
<path d="M0 3661 l0 -338 37 -6 c30 -5 40 -2 59 18 13 14 31 25 41 25 10 1 29
7 42 14 25 14 50 11 62 -7 4 -5 18 -2 32 8 19 12 37 15 71 10 51 -8 109 12
120 42 5 12 9 14 18 5 14 -14 78 -16 78 -3 0 5 -6 11 -12 14 -10 4 -10 7 0 18
10 11 12 11 12 0 0 -10 10 -11 36 -6 25 4 39 2 45 -6 5 -9 11 -10 21 -2 21 18
130 52 189 58 30 4 61 13 70 21 9 8 37 14 67 14 30 0 52 4 52 11 0 6 8 8 19 4
13 -4 25 2 38 17 26 31 88 65 79 43 -3 -9 0 -15 9 -15 8 0 15 -6 15 -14 0 -21
71 -3 92 24 9 11 28 20 42 20 17 0 26 6 26 15 0 9 7 18 15 21 8 4 12 10 9 15
-8 14 49 -1 59 -15 6 -7 7 -4 3 7 -4 14 1 17 37 18 23 1 61 2 85 3 32 1 41 -2
37 -13 -4 -9 0 -11 11 -7 8 3 19 6 23 6 4 0 14 19 21 43 7 23 15 36 17 30 7
-19 83 -17 83 2 0 8 8 15 18 15 14 0 15 -2 2 -10 -10 -6 -11 -10 -2 -10 6 0
12 -9 12 -20 0 -11 5 -20 10 -20 6 0 10 6 10 14 0 18 22 26 69 26 28 0 43 7
60 26 15 17 28 23 41 19 12 -4 20 -2 20 4 0 6 5 11 11 11 7 0 18 8 25 18 12
16 13 15 14 -5 0 -24 22 -43 28 -25 2 6 10 8 19 5 16 -6 74 50 72 71 0 7 -3 6
-6 -1 -8 -22 -25 -14 -21 10 2 18 11 23 48 28 25 3 40 7 33 7 -15 2 -5 32 11
32 6 1 25 12 41 25 l30 25 -1152 0 -1153 0 0 -339z m2190 262 c0 -1 -9 -3 -20
-3 -15 0 -20 7 -20 27 l0 26 20 -23 c11 -13 20 -25 20 -27z m-287 -160 c-13
-2 -33 -2 -45 0 -13 2 -3 4 22 4 25 0 35 -2 23 -4z m-1503 -353 c0 -5 -4 -10
-10 -10 -5 0 -10 5 -10 10 0 6 5 10 10 10 6 0 10 -4 10 -10z"/>
<path d="M1480 3671 c0 -6 5 -13 10 -16 6 -3 10 1 10 9 0 9 -4 16 -10 16 -5 0
-10 -4 -10 -9z"/>
<path d="M1565 3670 c3 -5 8 -10 11 -10 2 0 4 5 4 10 0 6 -5 10 -11 10 -5 0
-7 -4 -4 -10z"/>
<path d="M1654 3116 c-5 -12 -15 -15 -45 -10 -34 6 -39 4 -39 -12 -1 -18 -1
-18 -14 -1 -7 9 -23 17 -34 17 -12 0 -26 -8 -32 -17 -8 -13 -13 -14 -16 -5 -3
6 -14 12 -24 12 -10 0 -21 -6 -23 -12 -4 -9 -8 -10 -14 -2 -10 14 -144 16
-160 2 -7 -5 -17 -7 -22 -4 -6 4 -22 4 -36 0 -18 -4 -25 -13 -25 -31 0 -15 -5
-23 -12 -20 -7 2 -13 10 -13 18 0 21 -16 29 -36 18 -10 -5 -27 -9 -38 -9 -11
0 -25 -8 -30 -17 -6 -10 -11 -13 -11 -7 0 14 -48 36 -55 24 -7 -11 12 -60 24
-60 5 0 12 6 14 13 4 8 6 7 6 -3 0 -8 -3 -21 -8 -28 -6 -10 -16 -1 -37 33
l-29 46 -60 -7 c-33 -4 -71 -8 -85 -8 -14 -1 -31 -5 -39 -10 -10 -6 -12 -5 -7
2 5 8 -1 12 -18 12 -26 0 -48 -21 -28 -28 7 -2 12 -10 12 -19 0 -21 -23 -11
-35 15 -11 24 -34 29 -53 10 -8 -8 -12 -8 -12 -1 0 12 -38 25 -82 28 -20 2
-29 -3 -34 -18 -5 -17 -8 -18 -18 -6 -6 8 -20 15 -31 16 -37 4 -166 -35 -180
-54 -14 -17 -14 -17 -15 0 0 15 -6 18 -28 13 -61 -11 -111 -17 -153 -17 -81 0
-79 2 -79 -115 l0 -104 43 -1 c23 -1 47 0 52 1 16 3 188 23 212 24 11 0 20 3
18 7 -2 3 15 10 38 17 71 19 82 19 85 -4 4 -25 -18 -30 -133 -34 -38 -1 -85
-8 -103 -16 -19 -8 -43 -14 -54 -14 -10 0 -50 -7 -89 -16 l-69 -16 0 -174 c0
-159 2 -174 18 -174 16 -1 16 -1 -1 -14 -11 -8 -17 -27 -17 -50 0 -31 3 -36
18 -32 114 31 162 51 158 62 -7 17 31 44 62 44 12 0 39 7 60 16 20 9 60 22 87
29 28 8 40 14 28 14 -12 1 -25 6 -28 11 -3 6 -15 10 -26 10 -10 0 -19 6 -19
14 0 8 -3 21 -6 30 -5 14 5 16 70 14 57 -1 76 -4 76 -15 0 -7 8 -17 18 -20 9
-4 22 -12 27 -19 9 -11 41 -18 73 -15 6 1 12 10 12 20 0 11 4 22 9 25 5 3 7
16 3 28 -3 14 -2 19 6 14 7 -4 12 -2 12 5 0 8 13 10 40 6 46 -6 82 1 74 14 -3
5 6 9 21 9 14 0 34 6 45 12 15 10 25 10 38 2 10 -7 36 -15 59 -19 48 -8 70
-27 50 -43 -34 -28 -84 -39 -287 -58 -47 -5 -57 -9 -68 -32 -6 -14 -10 -28 -7
-30 2 -2 25 3 50 12 29 9 45 11 43 4 -2 -6 -69 -38 -148 -71 -80 -33 -157 -70
-172 -82 -15 -13 -69 -37 -120 -54 -135 -44 -178 -59 -220 -78 l-38 -16 0
-1059 0 -1058 2000 0 2000 0 0 530 c0 481 -4 566 -24 515 -3 -8 -16 -15 -30
-15 -14 0 -28 -5 -31 -10 -12 -19 -26 -11 -16 8 11 21 -19 76 -41 78 -7 0 -31
2 -54 2 -33 2 -43 7 -52 27 -15 32 -16 68 -2 60 6 -3 7 1 4 9 -3 9 -11 16 -16
16 -6 0 -8 15 -6 34 2 21 0 32 -6 29 -5 -4 -7 1 -3 10 3 10 2 17 -2 17 -13 0
-39 127 -51 240 -13 130 -37 211 -89 300 -69 118 -125 184 -168 199 -193 67
-286 104 -304 119 -11 9 -31 40 -45 67 -36 71 -90 124 -141 137 -31 7 -43 15
-43 29 0 42 -64 252 -90 293 -35 58 -120 115 -189 128 -60 11 -61 11 -138 -28
-78 -39 -151 -103 -181 -158 -13 -23 -17 -57 -17 -133 0 -71 -4 -103 -11 -103
-29 0 -163 66 -197 97 -28 24 -45 33 -60 29 -13 -3 -44 6 -72 19 -62 31 -125
32 -205 5 -66 -22 -171 -40 -242 -40 -38 0 -50 4 -65 25 -19 26 -109 65 -155
67 -32 1 -32 2 -16 31 10 20 10 21 -6 8 -24 -20 -32 -6 -7 16 12 9 21 20 21
24 0 18 -187 58 -199 43 -8 -12 -32 -11 -58 4 -26 15 -43 15 -43 2 0 -5 7 -10
15 -10 8 0 15 -5 15 -11 0 -11 -38 -3 -54 12 -6 5 -18 9 -27 9 -10 0 -19 4
-21 9 -2 4 -22 10 -45 14 -46 5 -51 -3 -20 -35 24 -25 22 -42 -3 -28 -24 13
-43 47 -37 65 6 14 -32 35 -63 35 -23 0 -50 10 -50 19 0 9 90 35 114 33 11 0
22 -6 26 -11 4 -7 25 -7 65 -1 50 8 134 12 264 10 14 0 27 -4 30 -8 13 -19 41
-21 53 -3 11 15 37 29 71 37 4 1 8 2 10 3 1 1 88 4 192 7 105 3 192 8 195 10
2 3 -1 14 -8 24 -18 29 -15 50 11 60 18 7 27 3 50 -23 39 -45 34 -54 -10 -18
-47 39 -58 39 -39 2 20 -37 63 -58 77 -37 4 5 15 5 25 1 30 -13 85 -15 78 -3
-4 7 1 7 17 2 29 -11 151 -6 185 6 22 9 24 14 18 45 -8 43 15 49 40 10 23 -35
61 -58 107 -62 41 -4 52 10 27 35 -18 18 9 15 58 -7 50 -23 127 -25 165 -5 26
13 29 13 29 -1 0 -11 11 -15 41 -15 33 0 40 3 35 16 -3 9 -6 18 -6 20 0 2 -11
4 -25 4 -14 0 -25 4 -25 9 0 5 -14 14 -31 21 -22 10 -33 10 -42 1 -18 -18 -42
-13 -67 13 -35 38 -146 70 -125 36 8 -12 -21 -20 -33 -8 -7 7 -16 7 -28 0 -16
-9 -15 -11 5 -22 32 -17 20 -22 -20 -8 -38 13 -102 68 -79 68 25 0 -12 29 -40
32 -14 2 -28 7 -31 11 -9 12 -78 17 -85 6 -3 -5 -14 -4 -26 2 -11 6 -59 12
-107 14 -47 2 -103 6 -123 10 -30 6 -39 4 -44 -9z m430 -56 c7 -7 6 -10 -4
-10 -27 0 -60 12 -60 21 0 12 50 3 64 -11z m-229 -58 c-7 -7 -55 27 -55 39 0
5 13 0 30 -12 16 -13 28 -25 25 -27z m-165 8 c0 -5 -2 -10 -4 -10 -3 0 -8 5
-11 10 -3 6 -1 10 4 10 6 0 11 -4 11 -10z m-1018 -25 c3 -14 1 -25 -3 -25 -5
0 -9 4 -9 9 0 5 -3 16 -6 25 -3 9 -2 16 4 16 5 0 12 -11 14 -25z m968 15 c0
-5 -2 -10 -4 -10 -3 0 -8 5 -11 10 -3 6 -1 10 4 10 6 0 11 -4 11 -10z m685 -1
c11 -17 -1 -21 -15 -4 -8 9 -8 15 -2 15 6 0 14 -5 17 -11z m-1325 -39 c6 0 10
-7 10 -15 0 -12 -9 -9 -34 12 -19 15 -32 31 -29 36 3 5 14 -1 24 -12 11 -12
24 -21 29 -21z m-290 -45 c0 -8 -4 -15 -10 -15 -5 0 -10 7 -10 15 0 8 5 15 10
15 6 0 10 -7 10 -15z m1190 5 c0 -5 -4 -10 -10 -10 -5 0 -10 5 -10 10 0 6 5
10 10 10 6 0 10 -4 10 -10z m-1226 -36 c8 -21 -12 -17 -24 6 -8 16 -8 18 4 14
8 -3 17 -12 20 -20z m-134 -5 c0 -6 -4 -7 -10 -4 -5 3 -10 11 -10 16 0 6 5 7
10 4 6 -3 10 -11 10 -16z m200 1 c8 -5 11 -12 7 -16 -4 -4 -15 0 -24 9 -18 18
-8 23 17 7z m-119 -70 c32 -26 3 -27 -31 0 -19 15 -21 20 -9 20 9 0 27 -9 40
-20z m-274 -66 c-3 -3 -12 -4 -19 -1 -8 3 -5 6 6 6 11 1 17 -2 13 -5z m88 -4
c3 -5 -2 -10 -12 -11 -16 0 -16 -1 2 -9 14 -7 8 -8 -20 -3 -47 7 -49 8 -40 22
8 14 62 14 70 1z m77 -21 c2 -5 11 -11 20 -13 26 -3 33 -15 14 -22 -17 -7 -66
20 -66 36 0 13 27 13 32 -1z m-247 -50 c-42 -37 -47 -78 -12 -102 24 -16 21
-25 -11 -32 -21 -4 -26 8 -39 98 -4 28 -2 37 10 37 8 0 20 7 27 15 7 8 23 15
37 15 23 0 22 -1 -12 -31z m884 -13 c-2 -2 -18 -7 -34 -11 -24 -5 -27 -4 -12
5 9 6 17 18 17 28 0 15 1 15 17 -1 9 -9 15 -19 12 -21z m41 -6 c0 -5 -4 -10
-10 -10 -5 0 -10 5 -10 10 0 6 5 10 10 10 6 0 10 -4 10 -10z m-5 -50 c3 -5 -1
-10 -9 -10 -9 0 -16 5 -16 10 0 6 4 10 9 10 6 0 13 -4 16 -10z m-15 -60 c0
-11 -4 -20 -10 -20 -5 0 -10 9 -10 20 0 11 5 20 10 20 6 0 10 -9 10 -20z
m-125 -10 c-3 -5 -18 -10 -33 -9 -24 0 -25 1 -7 9 28 12 47 12 40 0z m-847
-27 c-10 -2 -26 -2 -35 0 -10 3 -2 5 17 5 19 0 27 -2 18 -5z m1190 -2 c14 -1
15 -11 4 -27 -4 -7 -27 -9 -63 -5 -48 6 -59 4 -68 -11 -11 -17 -13 -17 -41 4
-49 36 -38 43 63 42 50 -1 98 -2 105 -3z m-261 -46 c3 -9 3 -19 -1 -22 -8 -9
-37 18 -30 28 8 14 24 11 31 -6z m-757 -15 c0 -5 -4 -10 -9 -10 -6 0 -13 5
-16 10 -3 6 1 10 9 10 9 0 16 -4 16 -10z m676 -4 c10 -8 16 -18 12 -22 -4 -4
-13 -2 -21 4 -7 6 -36 9 -65 7 -31 -2 -54 1 -58 7 -5 7 0 9 14 6 12 -4 22 -2
22 3 0 14 74 10 96 -5z m-202 -41 c-4 -17 -2 -25 7 -25 23 0 -12 -28 -45 -36
-34 -8 -28 12 8 26 22 8 22 8 -26 24 -33 10 -20 28 17 24 19 -2 35 0 35 4 0 4
2 8 5 8 3 0 3 -11 -1 -25z m-68 -31 c18 -15 18 -15 -10 -9 -26 6 -28 4 -22
-19 5 -22 3 -24 -27 -26 -17 -1 -47 -2 -66 -3 -20 -1 -36 3 -38 11 -3 7 5 12
22 12 17 0 35 9 47 25 23 29 64 33 94 9z m-189 -88 c-3 -8 1 -17 10 -20 9 -4
13 -9 10 -12 -7 -7 -57 25 -57 37 0 5 9 9 21 9 14 0 19 -5 16 -14z m-33 -41
c-4 -8 -12 -15 -19 -15 -7 0 -15 -7 -19 -15 -3 -8 -11 -13 -18 -11 -7 1 -10 1
-5 -1 12 -8 8 -23 -7 -23 -8 0 -21 8 -28 18 -7 11 -20 21 -28 24 -8 3 4 9 28
13 23 4 45 12 48 16 3 5 16 9 29 9 18 0 23 -4 19 -15z m1788 -28 c15 -15 31
-27 37 -27 19 0 24 -42 7 -52 -10 -5 -32 -23 -51 -39 -40 -35 -56 -31 -79 20
-9 22 -28 46 -41 55 -25 16 -33 36 -16 36 5 0 32 -18 59 -39 27 -22 53 -37 56
-34 3 4 -3 12 -14 20 -11 8 -17 20 -14 28 4 8 1 15 -5 15 -6 0 -11 7 -11 16 0
10 -6 14 -15 10 -8 -3 -15 -1 -15 3 0 29 70 20 102 -12z m-1922 -47 c0 -5 -2
-10 -4 -10 -3 0 -8 5 -11 10 -3 6 -1 10 4 10 6 0 11 -4 11 -10z m1756 -91 c3
-6 16 -8 27 -5 12 3 27 0 34 -6 17 -13 17 -39 1 -35 -7 1 -12 -4 -10 -10 1 -7
-3 -13 -8 -13 -7 0 -7 -7 0 -21 9 -16 8 -24 -4 -38 -21 -23 -20 -43 3 -70 32
-37 38 -201 9 -238 -5 -7 -7 -22 -3 -35 5 -18 4 -20 -4 -8 -9 13 -11 12 -12
-5 -1 -17 -2 -17 -6 -2 -5 20 -29 23 -36 5 -2 -7 -2 -2 0 10 2 14 0 21 -6 17
-6 -3 -26 -3 -46 1 -25 4 -35 12 -35 24 0 10 6 21 13 23 19 8 -8 24 -57 32
-24 5 -34 10 -23 12 14 4 15 8 7 18 -8 9 -6 17 5 29 15 15 15 16 -7 14 -17 -2
-22 1 -20 15 2 11 -4 17 -18 17 -11 0 -20 7 -20 15 0 8 -4 15 -8 15 -4 0 -9
14 -10 31 -3 32 4 32 41 1 9 -8 20 -12 24 -9 3 4 11 3 17 -2 18 -14 70 -22 85
-12 10 6 11 13 2 27 -10 18 -10 18 -11 -3 0 -13 -4 -23 -10 -23 -5 0 -10 7
-10 15 0 8 -4 15 -10 15 -5 0 -10 7 -10 16 0 11 6 14 20 9 14 -5 20 -2 20 9 0
9 -4 16 -10 16 -5 0 -10 4 -10 9 0 5 13 8 30 7 17 -1 32 4 35 12 2 7 8 11 13
8 4 -2 7 13 7 33 0 30 -3 37 -16 34 -13 -4 -16 2 -15 26 1 22 6 31 18 31 9 0
20 -5 24 -11z m-1796 -19 c0 -5 -4 -10 -10 -10 -5 0 -10 5 -10 10 0 6 5 10 10
10 6 0 10 -4 10 -10z m-150 -41 c0 -6 -9 -8 -20 -4 -11 4 -20 2 -20 -4 0 -6
-9 -11 -20 -11 -22 0 -27 15 -7 23 23 10 67 7 67 -4z m1557 -245 c-3 -3 -12
-4 -19 -1 -8 3 -5 6 6 6 11 1 17 -2 13 -5z m24 -106 c18 -20 25 -38 14 -38 -9
0 -45 40 -45 50 0 16 11 12 31 -12z m2069 -607 c0 -13 -29 -35 -37 -27 -3 3
-1 6 5 6 7 0 12 7 12 15 0 8 5 15 10 15 6 0 10 -4 10 -9z m-195 -171 c3 -5 2
-10 -4 -10 -5 0 -13 5 -16 10 -3 6 -2 10 4 10 5 0 13 -4 16 -10z m-113 -61
c29 -18 30 -20 8 -15 -14 3 -28 6 -31 6 -8 0 -21 30 -14 30 3 0 19 -9 37 -21z
m-15 -149 c21 -11 36 -20 33 -21 -38 -6 -58 -4 -72 9 -40 34 -16 42 39 12z"/>
<path d="M2181 1984 c0 -11 3 -14 6 -6 3 7 2 16 -1 19 -3 4 -6 -2 -5 -13z"/>
<path d="M2161 1894 c0 -11 3 -14 6 -6 3 7 2 16 -1 19 -3 4 -6 -2 -5 -13z"/>
<path d="M2181 1894 c0 -11 3 -14 6 -6 3 7 2 16 -1 19 -3 4 -6 -2 -5 -13z"/>
<path d="M2018 1815 c5 -26 16 -32 27 -15 7 11 -11 40 -25 40 -4 0 -5 -11 -2
-25z"/>
<path d="M1978 1823 c7 -3 16 -2 19 1 4 3 -2 6 -13 5 -11 0 -14 -3 -6 -6z"/>
<path d="M2057 1724 c-8 -8 1 -24 14 -24 5 0 9 7 9 15 0 15 -12 20 -23 9z"/>
<path d="M2120 2901 c0 -5 5 -13 10 -16 6 -3 10 -2 10 4 0 5 -4 13 -10 16 -5
3 -10 2 -10 -4z"/>
<path d="M640 2490 c0 -5 5 -10 11 -10 5 0 7 5 4 10 -3 6 -8 10 -11 10 -2 0
-4 -4 -4 -10z"/>
<path d="M455 2450 c-3 -5 1 -10 9 -10 9 0 16 5 16 10 0 6 -4 10 -9 10 -6 0
-13 -4 -16 -10z"/>
<path d="M453 2412 c1 -15 5 -17 24 -8 19 10 20 12 5 18 -27 11 -31 9 -29 -10z"/>
<path d="M240 2355 c-7 -8 -8 -15 -2 -15 5 0 15 7 22 15 7 8 8 15 2 15 -5 0
-15 -7 -22 -15z"/>
</g>
</svg>
